# xmcd
#
# Track frame offsets:
#	150
#	16700
#	39785
#	62839
#	84812
#	99040
#	111870
#	124970
#	137030
#	148217
#	161272
#	172920
#	189657
#	203475
#	216472
#
# Disc length: 3043 seconds
#
# Revision: 1
# Processed by: cddbd v1.4PL0 Copyright (c) Steve Scherf et al.
# Submitted via: audiograbber 1.81.03
#
DISCID=c00be10f
DTITLE=Eddie Bo - Hook and Sling
DYEAR=1900
DGENRE=Blues
TTITLE0=Hook and Sling
TTITLE1=Sissy Walk
TTITLE2=If It's Good To You It's Good For You
TTITLE3=Check Your Bucket
TTITLE4=How Sweet It Is
TTITLE5=The Thang (Part 1)
TTITLE6=Funky Jam
TTITLE7=Hey Mama Here Comes The Preacher
TTITLE8=Funky Yeah
TTITLE9=Eddie's Rubber Band
TTITLE10=Love Has Been Good
TTITLE11=Just Wonder
TTITLE12=The Thang (Part 2)
TTITLE13=That Certain Someone
TTITLE14=Come To Me
EXTD=
EXTT0=
EXTT1=
EXTT2=
EXTT3=
EXTT4=
EXTT5=
EXTT6=
EXTT7=
EXTT8=
EXTT9=
EXTT10=
EXTT11=
EXTT12=
EXTT13=
EXTT14=
PLAYORDER=
